<?xml version="1.0" standalone="no"?>
<!DOCTYPE svg PUBLIC "-//W3C//DTD SVG 20010904//EN"
 "http://www.w3.org/TR/2001/REC-SVG-20010904/DTD/svg10.dtd">
<svg version="1.0" xmlns="http://www.w3.org/2000/svg"
 width="400.000000pt" height="400.000000pt" viewBox="0 0 400.000000 400.000000"
 preserveAspectRatio="xMidYMid meet">

<g transform="translate(0.000000,400.000000) scale(0.100000,-0.100000)"
fill="#000000" stroke="none">
<path d="M2390 3898 c-2 -350 -11 -544 -28 -578 l-17 -35 -250 -1 c-214 -1
-270 -4 -385 -24 -74 -13 -159 -24 -188 -24 -28 -1 -52 -4 -52 -8 0 -5 -7 -8
-15 -8 -22 0 -51 137 -32 156 4 4 7 -1 7 -12 0 -10 5 -26 11 -34 11 -16 10 -3
-10 160 -16 125 -33 210 -42 204 -14 -8 -21 47 -33 251 -1 16 -9 21 -44 23
-24 2 -50 -2 -58 -9 -34 -28 -93 -207 -150 -449 -24 -104 -33 -159 -53 -338
-6 -52 -13 -97 -16 -101 -2 -4 -6 -70 -10 -146 -3 -76 -6 -140 -8 -141 -6 -7
1 -373 7 -383 4 -6 3 -11 -2 -11 -9 0 -7 -64 3 -80 3 -6 2 -10 -2 -10 -5 0 -9
-9 -9 -20 0 -11 3 -20 6 -20 3 0 5 -64 5 -142 0 -79 4 -181 8 -228 4 -47 12
-139 18 -205 11 -143 15 -177 39 -365 16 -127 27 -177 54 -240 4 -11 -35 -36
-167 -104 -247 -127 -468 -250 -724 -403 -40 -24 -76 -43 -79 -43 -4 0 -22
-11 -40 -25 -18 -14 -36 -25 -40 -25 -4 0 -26 -12 -50 -28 l-44 -27 0 -212 0
-213 886 0 c533 0 883 4 880 9 -17 27 74 141 142 179 164 92 299 137 533 177
95 16 268 19 299 4 8 -4 41 -14 72 -23 107 -31 149 -94 113 -170 -20 -41 -119
-136 -168 -160 -29 -14 20 -16 606 -16 l637 0 0 619 0 619 -31 7 c-53 12 -128
12 -133 1 -3 -7 -8 -6 -14 3 -9 12 -13 13 -26 1 -14 -11 -16 -10 -10 4 5 12 2
15 -10 10 -9 -3 -29 -1 -46 4 -16 6 -30 7 -30 3 0 -5 -9 -11 -21 -14 -13 -4
-19 -1 -16 6 3 8 -7 12 -27 11 -17 -1 -36 2 -41 7 -15 11 -68 4 -73 -9 -2 -8
-8 -7 -19 3 -17 17 -37 20 -27 4 5 -8 1 -8 -14 0 -21 11 -33 3 -45 -29 -5 -13
-6 -12 -6 1 -1 24 -27 44 -35 27 -3 -7 -3 -1 0 13 4 19 1 28 -11 33 -9 3 -13
2 -10 -4 3 -6 -5 -10 -19 -10 -14 0 -28 5 -31 10 -4 6 -20 9 -37 8 -18 -1 -33
3 -36 10 -2 6 -11 12 -20 11 -11 0 -12 -2 -4 -6 6 -2 9 -9 6 -15 -4 -6 -12 -1
-20 13 -11 20 -13 21 -14 6 0 -10 -4 -16 -9 -13 -5 4 -12 0 -14 -6 -3 -8 -6
-6 -6 5 -1 10 -5 15 -11 12 -5 -3 -10 0 -11 7 0 7 -5 0 -11 -16 -8 -21 -13
-25 -19 -15 -13 20 -11 37 2 19 7 -10 9 -11 7 -2 -2 8 -8 14 -13 14 -6 0 -20
4 -32 9 -18 7 -21 5 -16 -8 4 -11 3 -14 -5 -9 -7 4 -12 14 -12 22 0 8 -6 14
-14 14 -22 0 -26 24 -26 173 -1 284 -25 699 -41 705 -5 2 -9 17 -9 34 0 22 -4
29 -14 25 -10 -4 -13 -1 -9 9 6 17 -15 65 -34 77 -7 4 -13 16 -13 25 0 10 -5
23 -11 29 -8 8 -7 23 4 54 24 76 28 217 9 330 -6 35 -16 105 -22 154 -7 50
-16 113 -22 140 -5 28 -12 61 -14 75 -42 217 -112 425 -212 633 l-75 157 -69
0 -68 0 0 -102z m-977 -463 c-3 -9 -8 -14 -10 -11 -3 3 -2 9 2 15 9 16 15 13
8 -4z m1007 -249 c-11 -35 -8 -81 10 -121 17 -37 49 -158 44 -166 -2 -4 1 -9
8 -11 7 -3 -7 -4 -31 -2 -24 1 -47 7 -51 14 -5 9 -9 9 -14 1 -4 -6 -12 -11
-18 -11 -6 0 -5 7 3 17 13 15 12 15 -10 4 -13 -7 -21 -9 -17 -3 3 5 -1 15 -8
21 -11 10 -16 9 -23 -3 -5 -9 -24 -18 -43 -21 -29 -5 -31 -4 -12 4 12 6 22 15
22 21 0 7 -6 8 -16 2 -9 -5 -25 -7 -35 -5 -11 3 -19 1 -19 -5 0 -7 -9 -6 -25
1 l-25 12 33 7 c19 4 11 5 -21 2 -35 -3 -52 -1 -47 5 3 6 -6 13 -20 17 -14 3
-25 13 -25 21 0 8 -5 11 -11 8 -6 -4 -8 -13 -5 -21 3 -8 0 -11 -9 -7 -11 4
-12 10 -5 23 7 13 6 20 -5 24 -8 3 -15 12 -15 19 0 12 15 15 52 8 4 0 5 -9 2
-18 -4 -13 -3 -15 4 -5 5 7 7 25 4 39 -3 18 -1 24 7 19 6 -4 8 -12 5 -18 -5
-7 -2 -8 5 -4 7 5 10 14 7 21 -5 14 25 31 67 38 24 4 28 2 24 -15 -5 -16 -3
-17 9 -7 8 7 12 19 10 26 -4 10 0 13 13 11 10 -2 25 3 34 11 11 9 17 10 17 2
0 -6 5 -11 11 -11 5 0 7 5 4 10 -8 14 8 13 22 -1 8 -8 13 -6 17 8 3 10 18 27
33 38 14 11 31 25 37 31 17 18 19 8 6 -30z m-1336 -20 c-3 -21 -9 -35 -11 -32
-3 3 -2 21 1 42 4 20 10 34 12 31 3 -3 2 -21 -2 -41z m403 -9 c12 -11 20 -24
17 -29 -3 -4 1 -8 8 -8 9 0 9 -3 -2 -10 -13 -9 -13 -12 3 -21 9 -5 17 -14 17
-20 0 -5 -9 -4 -20 3 -11 7 -20 18 -20 24 0 6 -6 17 -14 24 -8 6 -13 17 -10
24 3 8 -2 16 -10 19 -9 4 -16 11 -16 17 0 12 13 6 47 -23z m527 -143 c3 -8 2
-12 -4 -9 -6 3 -10 10 -10 16 0 14 7 11 14 -7z m-947 -126 c-2 -18 -4 -6 -4
27 0 33 2 48 4 33 2 -15 2 -42 0 -60z m-8 -148 l-5 -95 -2 91 c-1 50 1 94 5
97 9 10 9 12 2 -93z m1798 -319 c3 -11 11 -22 19 -25 8 -3 14 -11 14 -18 0
-10 -2 -10 -8 -1 -4 6 -14 13 -22 15 -16 3 -39 27 -40 41 0 16 32 6 37 -12z
m-1534 -58 c-5 -12 -3 -14 8 -9 8 4 5 0 -5 -8 -11 -9 -14 -16 -8 -16 7 0 12
-3 12 -8 0 -4 -19 -8 -42 -8 -24 0 -52 -2 -62 -5 -29 -6 -30 18 -2 44 30 28
78 27 69 -2 -4 -13 -1 -12 11 3 8 10 13 23 9 29 -3 6 -1 7 5 3 6 -4 8 -14 5
-23z m1248 -292 c27 -22 35 -18 -91 -52 -47 -12 -96 -28 -110 -34 -32 -15
-121 -37 -127 -31 -9 9 63 74 107 96 62 32 87 38 146 39 37 1 58 -4 75 -18z
m-852 -74 c30 -15 63 -38 74 -50 19 -22 19 -22 -5 -26 -20 -3 -97 10 -226 39
-23 6 -60 10 -82 10 -44 0 -50 9 -22 32 28 25 43 28 127 25 65 -2 90 -8 134
-30z m256 -127 c5 9 4 11 -3 6 -7 -4 -12 -3 -12 2 0 10 30 25 37 18 6 -5 4
-448 -2 -454 -2 -3 -30 0 -62 7 -66 13 -102 19 -122 20 -15 1 -13 14 14 121
45 182 57 250 43 250 -6 0 6 13 27 30 l37 30 17 -22 c14 -16 20 -18 26 -8z
m-730 -30 c3 -5 1 -10 -4 -10 -6 0 -11 5 -11 10 0 6 2 10 4 10 3 0 8 -4 11
-10z m32 -112 c-3 -8 -6 -5 -6 6 -1 11 2 17 5 13 3 -3 4 -12 1 -19z m57 -124
c3 -8 2 -12 -4 -9 -6 3 -10 10 -10 16 0 14 7 11 14 -7z m26 -52 c0 -15 -2 -15
-10 -2 -13 20 -13 33 0 25 6 -3 10 -14 10 -23z m30 -62 c0 -5 -2 -10 -4 -10
-3 0 -8 5 -11 10 -3 6 -1 10 4 10 6 0 11 -4 11 -10z m1060 -15 c8 -10 10 -32
7 -62 l-6 -48 10 40 c6 22 12 50 15 62 3 19 9 21 46 16 54 -7 68 -24 68 -87 0
-121 -30 -211 -85 -258 -72 -61 -275 -113 -485 -124 -250 -13 -332 10 -386
109 -46 85 -70 271 -41 312 13 16 25 18 138 12 68 -3 162 -13 209 -23 101 -19
163 -15 275 21 132 42 216 53 235 30z m580 -145 c0 -5 -2 -10 -4 -10 -3 0 -8
5 -11 10 -3 6 -1 10 4 10 6 0 11 -4 11 -10z m197 -42 c-3 -8 -6 -5 -6 6 -1 11
2 17 5 13 3 -3 4 -12 1 -19z m53 13 c-8 -6 -17 -8 -21 -5 -4 2 -10 -2 -12 -8
-3 -8 -6 -6 -6 5 -1 12 7 17 27 17 20 0 23 -3 12 -9z m38 -34 c6 -5 12 -14 12
-20 0 -7 -7 -4 -14 6 -10 13 -15 14 -18 6 -3 -9 -6 -8 -10 3 -7 17 7 19 30 5z
m267 3 c3 -6 -1 -7 -9 -4 -18 7 -21 14 -7 14 6 0 13 -4 16 -10z m-234 -27
c-12 -20 -14 -14 -5 12 4 9 9 14 11 11 3 -2 0 -13 -6 -23z m-1961 -889 c0 -13
-4 -24 -10 -24 -5 0 -10 14 -10 31 0 17 4 28 10 24 6 -3 10 -17 10 -31z m-543
4 c-3 -8 -6 -5 -6 6 -1 11 2 17 5 13 3 -3 4 -12 1 -19z m23 -38 c-8 -5 -18 -6
-24 -3 -5 4 -6 1 -2 -6 5 -7 14 -10 22 -7 21 8 17 -11 -3 -19 -17 -7 -16 -8 2
-15 20 -8 20 -8 0 -16 -11 -5 -21 -17 -21 -26 -3 -36 -4 -41 -10 -35 -8 8 -34
-18 -35 -35 0 -10 -2 -10 -6 0 -2 6 -9 9 -15 6 -6 -4 -14 -1 -19 7 -5 9 1 19
18 31 15 9 30 15 34 12 4 -2 10 0 13 5 12 18 -15 23 -34 6 -19 -17 -46 -12
-35 6 4 5 1 9 -4 9 -6 0 -12 -10 -12 -22 -1 -19 -2 -20 -6 -4 -3 10 0 23 6 29
6 6 11 16 11 23 0 6 15 28 34 49 30 32 37 35 55 26 18 -10 21 -9 22 11 l0 23
12 -23 c8 -18 8 -25 -3 -32z m520 -14 c0 -3 -4 -8 -10 -11 -5 -3 -10 -1 -10 4
0 6 5 11 10 11 6 0 10 -2 10 -4z m-611 -178 c1 -29 -23 -21 -37 12 -8 17 -18
28 -23 25 -5 -4 -6 1 -3 9 5 14 10 12 34 -7 16 -12 29 -30 29 -39z m-55 6 c3
-8 2 -12 -4 -9 -6 3 -10 10 -10 16 0 14 7 11 14 -7z m26 -43 c0 -17 -18 -21
-24 -6 -3 9 0 15 9 15 8 0 15 -4 15 -9z"/>
<path d="M2153 3090 c-13 -5 -23 -14 -23 -19 0 -5 11 -4 25 2 14 7 25 15 25
20 0 8 2 8 -27 -3z"/>
<path d="M1965 1841 c-3 -5 -1 -12 5 -16 5 -3 10 1 10 9 0 18 -6 21 -15 7z"/>
<path d="M1954 1798 c-4 -5 0 -15 7 -20 11 -7 9 -9 -7 -5 -13 3 -21 -1 -21 -9
0 -8 5 -14 10 -14 6 0 0 -8 -11 -19 -22 -18 -31 -38 -13 -27 5 3 8 -2 7 -10 0
-9 7 -18 17 -19 11 -2 17 3 17 16 0 10 6 19 14 19 18 0 18 87 0 94 -8 3 -16 0
-20 -6z"/>
<path d="M1964 1672 c-4 -9 -9 -21 -10 -27 -1 -5 -3 -14 -4 -20 -1 -5 -6 1
-10 15 -8 24 -8 25 -9 2 -1 -13 8 -33 20 -45 20 -21 21 -21 18 -2 -1 11 1 28
4 38 15 37 16 47 8 52 -5 3 -12 -3 -17 -13z"/>
<path d="M1900 1664 c0 -8 5 -12 10 -9 6 4 8 11 5 16 -9 14 -15 11 -15 -7z"/>
<path d="M1905 1621 c-3 -5 -2 -12 3 -15 5 -3 9 1 9 9 0 17 -3 19 -12 6z"/>
<path d="M1930 1548 c0 -36 4 -35 14 5 4 16 2 27 -4 27 -5 0 -10 -14 -10 -32z"/>
<path d="M2368 1459 c-36 -21 -247 -77 -315 -84 -41 -4 -127 -1 -202 6 -72 7
-133 10 -136 7 -3 -3 12 -36 33 -74 29 -51 52 -78 88 -102 64 -43 107 -53 213
-53 159 0 251 54 320 187 52 101 52 144 -1 113z m-60 -98 c-18 -46 -23 -50
-66 -59 l-47 -11 50 1 c28 0 54 -1 59 -1 21 -2 -49 -61 -98 -83 -43 -19 -68
-23 -161 -23 -63 0 -125 6 -145 13 -45 16 -87 48 -77 59 5 4 63 11 130 14
l122 5 -120 2 -120 2 -23 36 c-12 19 -21 38 -18 42 2 4 53 3 113 -2 120 -10
230 1 330 33 93 30 95 30 71 -28z"/>
<path d="M2113 1283 c15 -2 37 -2 50 0 12 2 0 4 -28 4 -27 0 -38 -2 -22 -4z"/>
<path d="M2245 1131 c-20 -19 -136 -41 -221 -42 -55 -1 -82 -4 -73 -10 41 -26
266 5 304 42 11 10 15 19 9 19 -5 0 -14 -4 -19 -9z"/>
<path d="M770 282 c0 -12 19 -26 26 -19 2 2 -2 10 -11 17 -9 8 -15 8 -15 2z"/>
<path d="M790 189 c0 -5 5 -7 10 -4 6 3 10 8 10 11 0 2 -4 4 -10 4 -5 0 -10
-5 -10 -11z"/>
<path d="M3391 1309 c-1 -23 25 -44 35 -28 4 8 3 9 -5 5 -7 -4 -15 2 -20 16
-7 15 -10 17 -10 7z"/>
<path d="M2585 310 c13 -26 15 -38 6 -56 -14 -32 -68 -64 -106 -64 -45 1 -67
23 -73 75 l-5 46 -21 -20 c-26 -24 -71 -37 -80 -22 -14 22 -26 10 -26 -26 0
-55 -31 -100 -74 -108 -42 -8 -90 1 -107 21 -8 10 -9 25 -1 54 l10 40 -88 -46
c-106 -54 -187 -125 -196 -172 l-7 -32 292 1 292 1 32 29 c33 30 65 36 98 19
16 -9 31 -4 78 25 33 20 68 35 78 33 22 -4 31 -57 12 -69 -8 -4 -11 -11 -7
-14 10 -10 110 67 152 116 20 23 36 53 36 66 0 69 -88 117 -239 130 l-73 6 17
-33z"/>
</g>
</svg>
